<?xml version="1.0" encoding="utf-8" ?>
<svg xmlns="http://www.w3.org/2000/svg" xmlns:xlink="http://www.w3.org/1999/xlink" width="316" height="316"
 viewBox="0 0 316 316">
<path fill="#135498" d="M964.22 293.641C964.581 293.601 964.944 293.569 965.308 293.544C987.509 292 1015.53 300.547 1032.29 315.199C1052.32 332.695 1061.51 357.314 1063.24 383.347C1065.06 410.816 1058.18 439.747 1039.68 460.714C1023.83 478.673 1002.35 488.526 978.579 489.997L978.172 490.039C954.656 492.38 929.272 486.432 910.912 471.17C891.019 454.635 880.11 430.143 877.904 404.677C875.467 376.542 880.853 345.896 899.481 323.812C916.785 303.298 938.184 295.877 964.22 293.641ZM980.136 455.147C993.57 452.182 1003.93 445.849 1011.41 434.075C1022.51 416.588 1024.63 392.468 1020.04 372.468C1016.55 357.282 1008.78 342.974 995.259 334.599C985.848 328.771 975.19 327.073 964.269 328.073C951.441 329.869 941.233 335.432 933.388 345.907C920.884 362.602 918.068 386.848 921.071 407.105C923.292 422.084 929.549 437.423 942.042 446.669C952.547 454.364 965.703 457.516 978.554 455.417C979.083 455.335 979.611 455.245 980.136 455.147Z"/>
<path fill="#135498" d="M322.891 262.8C368.797 261.791 414.903 262.656 460.834 262.651C496.208 262.647 531.941 261.488 567.281 262.656C576.47 262.96 584.525 264.549 590.957 271.627C594.676 275.719 596.987 281.063 598.138 286.427C600.872 299.172 599.417 327.224 598.74 341.05C593.09 349.944 582.09 359.311 574.565 367.162C574.313 354.642 576.643 295.2 572.364 288.729C571.592 288.553 570.812 288.408 570.028 288.296C560.579 286.872 550 287.725 540.428 287.72L485.619 287.711L383.183 287.738C365.681 287.745 348.01 287.235 330.527 287.847C327.467 287.954 324.029 287.655 321.55 289.493C320.967 293.022 320.651 296.515 320.519 300.086C319.889 317.205 320.392 334.53 320.39 351.669L320.409 449.432L320.418 526.587C320.422 540.577 319.851 554.874 320.662 568.823C320.8 571.196 320.824 573.386 322.595 575.165C324.855 577.434 401.585 576.414 411.375 576.406L512.415 576.44C529.518 576.446 547.029 577.209 564.095 576.369C567.242 576.214 570.396 575.942 573.285 574.6C576.084 567.604 574.474 495.671 574.565 482.748C581.248 473.515 591.289 465.018 599.486 457.01L599.603 536.091C599.62 548.764 600.879 563.003 599 575.533C598.252 580.73 596.185 585.648 592.995 589.818C587.633 596.725 579.239 600.258 570.73 601.271C559.014 602.665 545.914 601.572 534.072 601.574L457.719 601.55L367.605 601.574C352.466 601.572 336.322 602.68 321.278 601.036C316.482 600.512 312.082 598.24 308.352 595.256C301.071 589.43 296.951 582.012 295.939 572.728C294.345 558.097 295.538 542.291 295.545 527.537L295.535 439.309L295.518 341.503C295.519 324.048 294.319 305.596 296.19 288.263C296.806 282.55 298.776 277.245 302.437 272.759C307.751 266.247 314.773 263.698 322.891 262.8Z"/>
<path fill="#135498" d="M765.176 293.638C784.471 291.832 808.665 297.413 824.462 308.381C841.77 320.398 849.398 335.856 852.926 356.068C839.228 356.328 825.495 356.16 811.793 356.191C810.182 351.39 808.173 346.743 805.16 342.645C798.789 333.978 789.231 329.385 778.742 327.87C766.161 325.938 753.335 329.211 743.218 336.937C730.243 346.942 724.066 363.003 722.062 378.821C719.552 398.644 721.868 422.407 734.603 438.475C742.647 448.625 753.936 454.394 766.747 455.71C779.413 457.011 792.763 454.382 802.73 446.107C812.496 437.998 816.159 426.996 817.322 414.763C803.418 414.386 789.446 414.643 775.533 414.633L775.412 384.354C781.498 384.221 787.6 384.279 793.688 384.249C813.874 384.169 834.062 384.209 854.248 384.37C854.654 418.201 854.296 452.077 854.294 485.913C845.421 485.674 836.501 485.832 827.622 485.803C825.694 479.41 824.98 472.36 823.914 465.757C810.712 480.109 793.557 488.267 774.137 489.919C751.105 491.879 727.726 485.077 710.098 469.902C690.32 452.877 680.24 428.154 678.487 402.48C676.569 374.401 682.102 344.326 701.16 322.656C718.322 303.141 740.056 295.302 765.176 293.638Z"/>
<path fill="#135498" d="M1174.04 293.64C1192.89 292.982 1213.39 297.929 1228.87 308.829C1247.1 321.67 1254.49 339.965 1258.08 361.175C1244.77 360.735 1231.37 361.324 1218.04 361.35C1217.3 357.216 1216.03 352.906 1214.25 349.106C1210.03 340.08 1202.85 333.656 1193.48 330.3C1182.33 326.311 1169.14 326.804 1158.45 331.993C1145.85 338.115 1137.11 350.489 1132.8 363.542C1126.02 384.059 1126.21 411.338 1136.24 430.625C1141.94 441.59 1151.29 450.032 1163.18 453.685C1174.4 457.132 1187.18 456.556 1197.58 450.85C1208.78 444.695 1214.1 435.24 1217.63 423.41C1231.12 423.719 1244.65 423.532 1258.15 423.528C1256.81 437.624 1250.64 451.567 1241.35 462.203C1226.98 478.648 1205.17 488.569 1183.55 490.069C1159.11 491.765 1135.51 485.645 1116.88 469.274C1097.55 452.293 1087.7 427.53 1086.23 402.159C1084.59 373.851 1090.71 343.852 1110.05 322.198C1127.32 302.853 1148.71 295.115 1174.04 293.64Z"/>
<path fill="#135498" d="M615.056 364.776C615.836 364.669 616.617 364.578 617.401 364.501C622.674 363.997 626.899 365.179 630.964 368.657C633.49 370.818 635.249 373.917 635.346 377.284C635.512 383.055 631.953 387.085 628.275 391.033C600.739 420.592 572.008 449.149 544.224 478.504L509.491 515.135C503.68 521.241 497.905 528.221 491.428 533.581C488.861 535.704 485.217 537.113 481.875 537.076C472.203 536.968 443.45 503.639 435.375 495.328C429.426 489.02 416.916 479.759 416.781 470.36C416.73 466.802 418.65 463.479 421.159 461.061C423.796 458.521 427.179 457.33 430.824 457.493C434.274 457.646 437.529 458.951 440.394 460.823C450.737 467.585 471.852 491.485 481.877 501.898L567.202 412.761C577.738 401.708 603.71 371.533 615.056 364.776Z"/>
<path fill="#135498" d="M356.907 338.451C370.302 337.775 383.856 338.21 397.277 338.205L469.896 338.198L512.547 338.186C520.068 338.181 528.219 337.569 535.68 338.524C538.519 338.888 540.983 340.296 542.61 342.684C544.552 345.533 544.769 349.315 544.072 352.601C543.148 356.961 541 359.245 537.42 361.543C530.422 362.86 522.375 362.166 515.248 362.172L474.256 362.187L401.069 362.179C388.427 362.176 375.553 362.727 362.944 362.004C358.763 361.765 355.014 361.215 352.185 357.718C350.19 355.251 349.728 352.119 350.107 349.045C350.737 343.937 352.993 341.45 356.907 338.451Z"/>
<path fill="#135498" d="M708.276 621.319C715.314 621.088 722.018 622.127 728.039 625.989C734.906 630.394 739.23 637.734 740.896 645.618C742.801 654.634 741.615 665.042 736.492 672.844C731.545 680.379 724.508 683.519 715.958 685.311C708.74 686.143 701.127 684.962 695.04 680.837C688.096 676.13 683.563 668.588 682.135 660.374C680.538 651.189 682.196 640.952 687.69 633.296C692.898 626.04 699.694 622.791 708.276 621.319ZM716.37 675.152C722.415 672.525 726.453 668.94 728.857 662.644C731.271 656.208 731.083 649.085 728.334 642.786C726.209 638.043 722.365 633.947 717.376 632.218C714.054 631.066 710.527 631.391 707.107 631.784C700.849 634.795 696.609 638.374 694.278 645.101C692.082 651.435 692.388 659.248 695.367 665.287C697.47 669.642 701.226 672.975 705.798 674.548C709.197 675.688 712.859 675.597 716.37 675.152Z"/>
<path fill="#135498" d="M358.276 401.5C376.081 400.275 394.655 401.286 412.526 401.254C425.634 401.231 453.735 399.636 465.483 402.224C468.354 402.857 470.542 404.185 472.01 406.8C473.927 410.213 474.228 414.832 473.067 418.564C471.852 422.471 468.393 424.56 464.948 426.215C447.262 427.567 428.752 426.557 410.972 426.595C398.898 426.621 368.912 428.272 358.409 425.72C355.612 425.04 353.315 423.456 351.882 420.929C350.091 417.77 349.475 412.24 350.579 408.721C351.732 405.045 355.125 403.193 358.276 401.5Z"/>
<path fill="#135498" d="M856.177 637.775C867.054 637.536 869.067 642.515 873.571 642.737L873.325 639.765C875.238 637.925 880.591 638.518 883.376 638.429C883.52 650.829 885.635 676.64 882.33 687.395C880.83 692.279 877.854 696.503 873.252 698.884C867.104 702.066 858.044 701.991 851.613 699.747C846.4 697.928 843.698 694.603 841.352 689.771C841.307 688.175 841.202 687.931 842.073 686.623C848.209 684.727 854.144 691.453 860.41 692.479C863.268 692.947 865.921 692.48 868.227 690.666C872.764 687.099 872.679 681.525 873.127 676.302C871.049 679.032 868.824 680.934 865.545 682.082C860.754 683.758 855.983 683.741 851.396 681.431C846.332 678.88 842.828 674.112 841.159 668.764C839.084 662.115 839.303 654.069 842.673 647.869C845.664 642.367 850.322 639.476 856.177 637.775ZM864.963 674.386C869.005 672.082 871.435 669.518 872.733 664.948C873.884 660.898 873.681 656.209 871.618 652.484C870.135 649.805 867.872 647.73 864.887 646.884C862.985 646.344 860.677 646.505 858.725 646.714C854.551 649.244 852.195 651.782 851.034 656.651C850.087 660.621 850.509 665.072 852.633 668.602C854.097 671.034 856.501 673.385 859.324 674.116C861.088 674.574 863.152 674.425 864.963 674.386Z"/>
<path fill="#135498" d="M759.001 621.491L759.158 621.627C760.958 625.688 759.765 638.542 759.748 643.586C760.578 642.826 761.418 642.076 762.311 641.392C766.078 638.506 771.562 637.081 776.253 637.789C781.134 638.526 785.395 641.293 788.272 645.282C792.722 651.451 793.727 659.876 792.477 667.226C791.313 674.068 788.215 679.136 782.639 683.183C769.533 689.116 768.716 682.486 759.873 681.103L758.742 684.202C756.122 685.348 752.169 684.871 749.308 684.847L749.3 621.686C752.522 621.745 755.777 621.569 759.001 621.491ZM775.447 675.653C779.768 671.535 782.068 667.503 782.278 661.418C782.421 657.28 781.23 653.045 778.188 650.107C775.812 647.812 772.985 646.924 769.74 647.095C768.546 647.164 767.354 647.265 766.166 647.398C762.006 650.599 760.237 653.794 759.52 658.99C758.901 663.47 759.54 668.658 762.319 672.347C764.051 674.647 766.567 676.222 769.471 676.471C771.481 676.643 773.533 676.236 775.447 675.653Z"/>
<path fill="#135498" d="M920.255 709.67C923.756 709.716 927.286 709.54 930.787 709.463L930.867 731.468C933.672 729.208 936.202 727.395 939.739 726.493C944.625 725.248 949.439 725.492 953.805 728.231C958.837 731.387 961.727 736.855 962.976 742.53C964.986 751.669 963.023 759.833 958.012 767.555C955.063 770.622 950.678 773.027 946.431 773.651C939.998 774.597 935.665 771.186 930.741 767.676L930.058 767.907L929.897 771.4C927.889 772.591 922.823 772.037 920.334 772.083C920.082 751.291 920.274 730.466 920.255 709.67ZM945.339 764.167C949.743 760.913 951.968 757.518 952.803 752.078C953.461 747.787 952.863 743.028 950.212 739.474C948.539 737.233 945.853 735.349 943.008 735.104C941.508 734.975 939.937 735.039 938.442 735.197C934.187 737.918 932.138 740.812 931.063 745.767C930.064 750.368 930.428 755.765 933.191 759.716C934.869 762.116 937.554 763.956 940.486 764.345C942.015 764.548 943.819 764.347 945.339 764.167Z"/>
<path fill="#135498" d="M999.489 533.418L1009.73 533.333C1010.37 554.271 1009.84 575.232 1010.2 596.177C1007 596.14 1003.63 596.408 1000.61 595.266L999.891 592.287C997.274 592.097 994.839 594.44 992.626 595.765C988.162 598.438 983.148 597.015 978.442 595.863C976.391 594.784 974.519 593.394 972.892 591.743C968.345 587.039 966.616 579.812 966.68 573.449C966.75 566.54 968.997 559.437 974.054 554.549C977.476 551.24 982.139 549.115 986.962 549.407C992.095 549.719 996.29 552.022 999.587 555.868C999.801 548.389 999.604 540.897 999.489 533.418ZM992.19 588.013C996.397 585.204 998.639 582.313 999.693 577.29C1000.62 572.895 1000.27 567.95 997.84 564.069C996.285 561.582 993.694 559.456 990.76 558.904C989.041 558.58 987.124 558.736 985.39 558.91C981.238 561.58 979.08 564.488 978.005 569.357C976.995 573.93 977.432 579.12 980.026 583.111C981.596 585.525 984.066 587.613 986.97 588.111C988.594 588.389 990.565 588.172 992.19 588.013Z"/>
<path fill="#135498" d="M705.756 532.824C712.803 532.306 719.692 532.485 726.055 535.954C733.397 539.956 736.225 546.022 738.477 553.725L727.489 553.907C725.246 549.41 722.348 545.663 717.659 543.561C713.792 541.828 709.566 541.901 705.659 543.4C700.66 545.318 696.841 549.355 694.676 554.202C691.909 560.395 691.651 568.481 694.151 574.8C696.139 579.828 700.443 584.255 705.476 586.285C709.461 587.892 715.121 588.265 719.025 586.365C724.807 583.552 726.825 578.622 728.879 572.918C724.369 572.755 718.765 574.16 714.59 572.274C712.805 570.274 712.987 568.956 712.694 566.364C712.887 565.494 713.27 564.873 713.692 564.095C720.955 562.052 731.291 563.326 738.835 563.403C738.781 574.27 738.405 585.251 739.161 596.095C736.482 595.972 731.802 596.397 729.647 594.987C729.282 593.159 729.04 591.353 728.85 589.498C726.056 589.843 720.759 595.631 716.267 596.789C709.406 598.557 701.02 596.545 695.104 592.856C688.226 588.568 683.75 581.59 681.945 573.756C679.804 564.469 681.054 553.995 686.191 545.876C690.906 538.425 697.292 534.645 705.756 532.824Z"/>
<path fill="#135498" d="M1024.53 637.786C1029.95 637.54 1035.32 638.024 1040.03 640.941C1045.11 644.084 1048.15 649.114 1049.46 654.868C1051.03 661.774 1050.38 669.916 1046.53 675.992C1043.11 681.39 1038.14 684.004 1032.05 685.311C1026.3 686.003 1020.63 685.443 1015.66 682.306C1010.46 679.03 1007.22 673.566 1005.97 667.636C1004.57 660.997 1005.41 653.187 1009.17 647.424C1013.02 641.543 1017.83 639.176 1024.53 637.786ZM1031 676.515C1035.37 673.756 1037.8 670.924 1039.01 665.839C1040.07 661.411 1039.78 656.324 1037.42 652.349C1035.9 649.801 1033.42 647.62 1030.5 646.882C1028.67 646.421 1026.63 646.538 1024.77 646.69C1020.46 649.165 1018.09 651.649 1016.79 656.537C1015.58 661.123 1015.89 666.486 1018.33 670.632C1019.85 673.209 1022.43 675.51 1025.36 676.288C1027.17 676.767 1029.15 676.665 1031 676.515Z"/>
<path fill="#135498" d="M882.403 550.037C887.036 549.557 891.794 549.391 896.232 551.026C901.627 553.014 905.958 556.933 908.262 562.228C911.091 568.727 911.007 577.153 908.307 583.678C905.439 590.606 900.552 593.987 893.862 596.799C888.557 597.305 883.538 597.536 878.614 595.167C873.151 592.538 869.342 587.789 867.438 582.078C865.215 575.413 865.492 567.332 868.725 561.033C871.817 555.007 876.139 552.128 882.403 550.037ZM889.6 588.704C893.961 586.699 896.905 584.276 898.606 579.559C900.185 575.179 900.352 570.222 898.43 565.911C897.204 563.16 894.89 560.38 892.015 559.266C890.467 558.666 888.574 558.523 886.92 558.397C883.086 559.439 880.449 560.962 878.498 564.549C876.135 568.894 875.794 574.323 877.29 579.012C878.347 582.327 880.423 585.733 883.559 587.422C885.397 588.412 887.559 588.529 889.6 588.704Z"/>
<path fill="#135498" d="M760.035 726.29C764.874 725.931 769.553 725.844 774.077 727.867C779.523 730.303 783.429 734.663 785.448 740.262C787.789 746.753 787.599 754.88 784.615 761.139C781.615 767.433 776.831 770.733 770.45 773.079C765.05 773.608 760.125 773.688 755.12 771.304C749.951 768.842 746.149 764.347 744.286 758.96C742.023 752.415 742.326 744.372 745.387 738.127C748.576 731.62 753.364 728.529 760.035 726.29ZM766.668 764.884C771 762.863 773.712 760.605 775.346 755.964C776.948 751.419 776.947 746.234 774.857 741.836C773.443 738.861 771.038 736.241 767.833 735.236C766.795 734.91 765.731 734.678 764.666 734.456C760.554 735.686 757.835 737.185 755.698 741.159C753.358 745.515 752.817 750.893 754.35 755.607C755.469 759.045 757.875 762.383 761.233 763.916C762.901 764.677 764.862 764.752 766.668 764.884Z"/>
<path fill="#135498" d="M704.782 709.845C712.175 708.877 720.066 709.531 726.576 713.429C733.543 717.6 736.721 724.011 738.547 731.662L727.467 731.707C726.999 730.672 726.496 729.654 725.959 728.653C723.641 724.391 720.051 720.855 715.257 719.582C711.046 718.463 706.432 719.455 702.756 721.687C697.727 724.74 694.472 729.992 693.222 735.668C691.856 741.865 692.313 749.294 695.829 754.742C699.77 760.85 705.154 762.572 711.954 763.991C715.724 762.985 718.834 761.753 722.236 759.841C724.508 757.472 725.655 755.083 726.965 752.102L738.148 752.099C737.576 754.484 736.922 756.999 735.843 759.209C732.85 765.338 727.95 769.719 721.456 771.837C713.499 774.431 704.489 774.235 696.997 770.31C689.816 766.549 684.846 759.736 682.596 752.031C679.988 743.104 680.722 732.411 685.288 724.228C689.647 716.415 696.321 712.18 704.782 709.845Z"/>
<path fill="#135498" d="M1005.26 726.328C1005.67 726.286 1006.08 726.251 1006.49 726.222C1013.05 725.784 1019.75 726.603 1024.8 731.199C1031.02 736.869 1031.3 745.387 1031.53 753.175L998.409 753.068C999.619 755.859 1000.83 758.918 1002.93 761.16C1005.1 763.476 1007.96 765.257 1011.23 765.168C1015.83 765.042 1018.8 762.249 1021.75 759.138L1029.87 759.376L1030.49 760.299C1030.34 760.962 1030.31 761.23 1030.09 761.83C1028.44 766.304 1024.5 770.158 1020.14 771.961C1014.5 774.296 1007.6 774.148 1001.99 771.768C996.882 769.599 992.616 765.45 990.642 760.218C988.199 753.745 988.307 743.89 991.271 737.597C994.171 731.439 999.131 728.538 1005.26 726.328ZM1013.59 745.062C1016.22 745.041 1018.01 745.5 1020.19 743.915C1020.54 742.109 1020.7 741.225 1019.53 739.668C1017.58 737.049 1014.23 734.845 1010.99 734.549C1010.03 734.463 1009.1 734.482 1008.14 734.529C1005.17 736.043 1001.06 738.607 999.716 741.786C999.935 742.929 999.727 743.051 1000.74 743.816C1003.72 746.06 1009.95 745.192 1013.59 745.062Z"/>
<path fill="#135498" d="M910.182 637.883C915.897 637.719 922.111 638.327 926.363 642.574C933.76 649.963 931.342 674.196 931.502 684.929C928.946 684.932 926.48 684.814 923.937 684.581C921.938 683.23 922.15 682.053 921.693 679.828C917.17 679.591 912.6 686.241 906.615 686.081C901.439 685.942 896.91 682.545 893.551 678.932C891.788 675.615 890.786 671.653 891.606 667.908C894.301 655.605 912.379 659.796 920.076 654.473C920.603 653.38 921.014 653.219 920.577 651.999C919.78 649.776 915.971 646.636 913.764 645.984C908.559 644.445 906.969 649.758 903.313 651.854C901.161 653.088 898.034 653.055 895.73 652.335C894.89 651.562 894.287 651.332 894.06 650.165C893.734 648.49 894.619 646.791 895.53 645.444C899.057 640.236 904.35 638.916 910.182 637.883ZM904.234 675.843C908.029 677.087 911.446 677.487 915.133 675.47C917.737 674.045 919.381 671.93 920.11 669.059C920.545 667.342 920.504 665.3 920.085 663.576C915.686 663.978 907.253 663.929 904.089 667.297C902.882 668.583 902.303 670.35 902.657 672.101C902.91 673.349 903.637 674.718 904.234 675.843Z"/>
<path fill="#135498" d="M1124.55 637.901C1130.7 638.313 1136.49 639.111 1141 643.749C1146.46 649.368 1146.75 657.379 1146.71 664.736L1114.55 664.795C1115 666.72 1115.48 668.791 1116.31 670.588C1117.44 673.035 1119.48 675.504 1122.14 676.322C1126.49 677.663 1132.2 674.792 1135.86 672.528C1138.43 670.942 1140 670.891 1142.93 671.034L1143.94 671.088C1145.14 671.278 1145.05 671.381 1145.89 672.144C1145.82 673.604 1145.52 674.506 1144.76 675.779C1142.08 680.305 1135.47 684.658 1130.29 685.719C1124.95 686.813 1117.49 684.975 1113.11 681.763C1108.09 678.085 1105.27 672.268 1104.47 666.189C1103.55 659.199 1104.97 651.467 1109.35 645.811C1113.31 640.686 1118.31 638.745 1124.55 637.901ZM1114.91 657.012L1130.06 656.994C1132.41 656.941 1133.68 657.27 1135.61 655.748C1135.87 653.831 1135.9 652.956 1134.67 651.343C1132.64 648.664 1129.6 646.683 1126.22 646.522C1125.06 646.467 1123.89 646.532 1122.73 646.637C1118.1 649.544 1116.76 651.917 1114.91 657.012Z"/>
<path fill="#135498" d="M886.664 726.382C887.826 726.268 888.992 726.201 890.159 726.18C895.864 726.026 901.889 726.382 906.161 730.717C913.565 738.231 910.596 761.838 910.615 772.157C907.601 772.15 904.35 772.426 901.436 771.592C900.98 770.206 900.711 768.854 900.462 767.417C895.564 768.503 892.87 773.624 887.128 773.963C881.993 774.267 877.073 771.117 873.522 767.753C872.322 765.09 871.478 762.692 871.306 759.749C870.234 741.412 892.846 749.885 899.599 742.392C899.879 740.145 899.733 739.099 898.576 737.014C897.53 735.127 896.341 734.301 894.337 733.67C889.779 733.727 887.26 736.454 884.007 739.189C882.282 740.639 879.486 741.985 877.182 741.652C875.518 741.412 875.335 740.874 874.353 739.632C874.144 737.792 874.281 736.555 875.055 734.844C877.334 729.807 881.871 728.185 886.664 726.382ZM888.556 765.488C893.194 764.582 895.991 763.197 898.716 759.185C899.949 757.369 900.444 755.985 900.22 753.796C899.28 752.441 899.346 752.155 897.662 751.903C896.628 751.748 895.579 751.844 894.54 751.915C890.371 752.569 885.826 753.182 883.069 756.82C881.828 758.458 881.962 759.303 882.2 761.193C883.81 763.794 885.755 764.555 888.556 765.488Z"/>
<path fill="#135498" d="M1033.74 550.008C1034.95 549.884 1036.17 549.797 1037.38 549.748C1043.32 549.535 1049.32 550.957 1053.66 555.205C1059.49 560.902 1059.78 569.293 1059.77 576.89C1050.67 576.759 1037.13 575.165 1028.61 577.194C1028.56 577.355 1028.5 577.512 1028.48 577.678C1028.25 579.583 1029.92 583.284 1030.94 584.84C1032.17 586.712 1034.03 588.2 1036.3 588.539C1040.1 589.109 1044.27 587.793 1047.22 585.459C1048.36 584.559 1049.54 583.714 1050.7 582.853C1053.01 582.868 1055.55 582.527 1057.5 583.911C1058.15 585.463 1058.58 586.272 1057.91 587.983C1056.53 591.54 1051.7 594.388 1048.28 595.684C1042.46 597.893 1035.76 598.178 1030.05 595.487C1024.68 592.963 1020.92 588.197 1019.05 582.639C1016.74 575.739 1017.07 567.103 1020.45 560.601C1023.33 555.08 1027.86 551.787 1033.74 550.008ZM1028.4 568.549L1040.06 568.572C1042.83 568.711 1045.76 569.281 1048.16 567.686C1049.19 565.768 1049.07 565.805 1048.55 563.833C1046.22 561.109 1043.23 558.529 1039.51 558.185C1038.47 558.089 1037.44 558.082 1036.4 558.092C1031.97 560.726 1030.38 562.558 1028.78 567.444C1028.7 567.675 1028.62 567.903 1028.54 568.134L1028.4 568.549Z"/>
<path fill="#135498" d="M762.328 549.979C763.229 549.907 764.105 549.859 765.009 549.845C771.037 549.756 777.276 550.821 781.727 555.247C787.698 561.185 787.791 569.06 787.792 576.895C777.257 576.707 766.695 576.809 756.157 576.778C756.859 579.617 757.502 582.342 759.317 584.715C760.888 586.769 762.881 588.216 765.505 588.459C770.803 588.95 774.563 586.09 778.449 582.999C781.471 582.998 784.532 583.262 787.552 583.424C784.982 589.207 781.712 593.918 775.58 596.319C770.324 598.377 764.188 598.003 759.061 595.726C753.676 593.336 749.568 588.672 747.479 583.199C744.971 576.631 744.931 568.085 747.938 561.676C750.923 555.314 755.959 552.247 762.328 549.979ZM769.125 568.566C771.852 568.561 773.878 569.033 776.192 567.485C776.613 565.86 776.923 565.349 776.08 563.783C775 561.776 771.832 559.223 769.677 558.612C768.203 558.194 766.569 558.145 765.046 558.061C762.072 559.756 757.736 562.364 756.766 565.827C757.851 567.507 758.423 568.061 760.465 568.462C763.045 568.969 766.461 568.59 769.125 568.566Z"/>
<path fill="#135498" d="M1078.15 637.824C1083.36 637.848 1088.87 638.329 1092.69 642.303C1100.27 650.179 1097.38 673.94 1097.29 684.875L1087.04 684.804C1087.05 675.739 1088.43 665.398 1086.99 656.51C1086.49 653.397 1085.28 649.857 1082.48 648.102C1079.67 646.339 1076.73 646.996 1073.7 647.552C1072.64 648.178 1071.56 648.833 1070.72 649.742C1065.11 655.772 1067.58 676.994 1067.59 684.935L1057.41 684.78L1057.4 638.823C1060.59 638.686 1063.79 638.639 1066.98 638.683C1067.09 640.081 1067.26 641.227 1067.66 642.57C1070.81 640.58 1073.73 638.497 1077.47 637.908C1077.7 637.873 1077.92 637.852 1078.15 637.824Z"/>
<path fill="#135498" d="M813.116 726.267C814.319 726.186 815.525 726.141 816.731 726.133C821.474 726.07 825.564 726.955 828.988 730.536C836.496 738.389 833.762 761.282 833.655 772.059L823.447 772.158C823.083 763.461 826.191 744.087 820.27 737.57C818.056 735.133 815.499 735.036 812.459 735.007C810.816 735.721 808.793 736.674 807.591 738.025C802.072 744.228 804.624 764.039 804.641 772.056L794.345 771.995L794.352 727.135C796.284 727.018 798.363 726.794 800.291 726.944C802.116 727.085 803.354 727.552 804.543 728.935L804.276 730.309C807.043 730.108 810.505 727.523 813.116 726.267Z"/>
<path fill="#135498" d="M1168.54 637.821C1169.8 637.785 1171.01 637.857 1172.26 637.991C1178.11 638.613 1182.64 639.788 1186.38 644.611C1188.01 646.714 1188.92 648.679 1188.55 651.34C1181.86 655.763 1177.25 645.85 1170.79 646.213C1168.42 646.346 1164.04 647.937 1162.58 649.935C1161.97 650.763 1162.08 650.433 1162.2 651.348C1166.46 657.038 1178.09 656.896 1184.2 660.95C1187.07 662.858 1189.34 665.581 1189.87 669.078C1190.41 672.651 1189.05 676.897 1186.79 679.714C1182.88 684.601 1176.46 685.026 1170.72 685.744C1165.77 685.323 1159.94 684.337 1156.12 680.905C1154.19 679.175 1151.8 675.938 1151.91 673.21C1151.98 671.489 1152.6 671.194 1153.71 670.093C1163.03 667.264 1161.28 674.841 1167.19 677.017C1169.6 677.904 1173.56 677.331 1175.84 676.275C1177.76 675.388 1178.74 674.098 1179.43 672.161C1177.53 665.909 1164.25 665.302 1158.88 661.911C1155.89 660.02 1153.2 657.506 1152.54 653.867C1151.98 650.778 1152.95 647.158 1154.78 644.636C1157.99 640.207 1163.44 638.686 1168.54 637.821Z"/>
<path fill="#135498" d="M805.583 550.041C812.147 549.567 816.636 550.119 822.618 553.05C825.609 554.516 828.485 556.124 829.637 559.443C829.615 561.507 829.114 562.332 827.91 563.979C821.827 566.363 817.039 558.648 810.902 558.078C808.902 557.892 806.971 558.546 805.47 559.899C804.15 561.089 803.696 561.768 803.664 563.493C807.579 568.635 817.947 568.559 823.636 571.681C826.861 573.451 829.806 575.982 830.712 579.705C831.515 583.009 830.417 586.805 828.655 589.646C825.613 594.55 820.667 595.816 815.436 597.048C812.745 597.171 809.766 597.314 807.118 596.785C802.568 595.877 794.989 592.064 792.585 587.892C791.81 586.547 791.492 584.881 792.197 583.431C793.036 581.703 794.023 581.197 795.735 580.605C799.8 581.163 803.376 584.891 806.835 586.944C809.401 588.467 812.34 589.227 815.259 588.371C818.151 587.522 820.021 586.222 821.359 583.576C818.524 579.517 811.541 578.261 807.082 576.795C802.026 575.132 796.448 572.989 794.08 567.755C792.857 565.051 792.934 561.984 794.063 559.26C796.175 554.17 800.815 551.964 805.583 550.041Z"/>
<path fill="#135498" d="M1050.37 726.298C1054.5 726.103 1058.96 725.914 1062.9 727.394C1068.76 729.594 1071.16 734.373 1073.69 739.689C1061.21 740.017 1064.15 736.246 1056 734.664C1053.7 734.218 1051.44 734.864 1049.63 736.337C1048.24 737.47 1047.86 738.022 1047.69 739.764C1051.2 745.062 1062.76 745.537 1068.34 748.964C1070.99 750.589 1073.46 753.093 1074.07 756.245C1074.71 759.529 1073.36 762.869 1071.64 765.616C1068.19 771.113 1063.37 772.222 1057.44 773.527C1051.32 773.349 1044.33 772.903 1039.81 768.175C1038.2 766.483 1036.34 763.792 1036.47 761.34C1036.57 759.53 1037.1 759.264 1038.33 758.066C1046.86 755.723 1047.49 765.389 1054.01 765.504C1056.24 765.544 1060.05 764.8 1061.61 763.127C1062.9 761.746 1063.01 760.813 1063.08 758.999C1060.57 754.592 1052.56 753.817 1048.03 752.252C1044.01 750.863 1039.87 748.664 1038.1 744.553C1036.81 741.575 1037.19 737.681 1038.53 734.759C1040.82 729.777 1045.54 727.892 1050.37 726.298Z"/>
<path fill="#135498" d="M958.411 637.829C963.212 637.773 968.893 638.601 972.998 641.256C978.193 644.616 979.83 649.414 981.108 655.191L971.762 654.968C970.586 653.36 969.392 651.585 967.946 650.208C965.589 647.962 962.559 646.423 959.225 646.669C956.71 646.855 954.538 648.314 952.98 650.236C949.77 654.195 948.76 660.029 949.41 664.99C949.905 668.779 951.414 672.783 954.682 675.015C957.07 676.645 960.345 677.033 963.14 676.439C966.852 675.65 968.8 672.324 970.716 669.39L971.104 668.825C974.046 667.8 978.139 668.373 981.261 668.464C980.484 671.426 979.651 674.219 978.067 676.865C975.365 681.376 971.273 683.839 966.251 684.97C960.293 686.313 954.006 685.893 948.759 682.545C943.516 679.199 940.348 673.569 939.156 667.563C937.773 660.592 938.672 652.539 942.807 646.609C946.804 640.88 951.756 638.955 958.411 637.829Z"/>
<path fill="#135498" d="M849.946 538.152L850.788 538.206C852.147 541.564 851.427 546.987 851.416 550.645C854.263 550.543 858.047 549.942 860.612 551.208C862.213 553.333 861.721 556.283 861.682 558.836L851.417 558.856C851.298 566.265 850.642 574.2 851.428 581.552C852.475 591.356 856.734 585.136 861.712 589.178C862.251 591.408 862.024 593.082 860.71 595.126C859.71 596.68 858.126 596.581 856.428 596.961C852.201 596.988 847.522 597.019 844.289 593.836C838.204 587.845 841.263 573.547 841.045 565.805C840.726 554.451 838.039 561.649 833.273 557.11C832.755 554.964 833.053 553.529 833.537 551.397C835.233 550.134 838.631 550.508 840.718 550.451L841.183 539.56L849.946 538.152Z"/>
<path fill="#135498" d="M853.361 715.25C854.09 715.092 854.923 715.13 855.671 715.094C857.484 717.496 856.649 724.05 856.582 727.02C858.66 727.015 860.888 726.724 862.946 726.999C865.033 727.278 866.127 728.74 867.299 730.342C867.286 732.141 866.817 732.744 865.467 733.988C863.444 735.853 859.052 735.187 856.477 735.104C856.525 742.941 854.403 756.323 857.829 763.257C860.364 764.59 862.502 763.816 865.264 764.259C866.15 766.131 866.61 769.17 865.824 771.116C865.319 772.365 864.309 772.472 863.14 773.008C859.37 773.192 854.793 773.447 851.422 771.552C840.65 765.496 848.533 745.952 845.576 736.036C845.082 734.381 840.761 735.214 838.842 734.055C838.004 732.225 837.996 730.839 838.24 728.875C838.642 725.639 842.424 727.931 844.986 726.065C846.679 723.165 846.09 719.487 845.989 716.25C848.345 715.739 850.962 715.571 853.361 715.25Z"/>
<path fill="#135498" d="M800.983 621.539L810.753 621.416L810.876 684.777L800.448 684.808C800.435 674.329 799.106 627.999 800.983 621.539Z"/>
<path fill="#135498" d="M970.62 709.732L981.022 709.603C981.154 718.151 982.793 768.162 980.21 772.076L970.825 772.101C971.09 751.511 971.968 730.257 970.62 709.732Z"/>
<path fill="#135498" d="M935.921 549.963C938.323 549.752 940.506 549.272 942.692 550.505C944.265 553.106 943.651 557.229 943.568 560.224C943.064 560.162 942.557 560.116 942.05 560.087C938.454 559.878 934.766 560.194 932.054 562.841C925.693 569.052 928.482 587.595 928.468 595.982C925.741 596.17 922.897 596.028 920.157 596.048L918.86 595.945C916.751 592.789 917.951 557.202 917.973 550.714L924.922 550.656C926.572 551.447 927.168 551.931 928.075 553.535C928.423 554.15 928.647 554.142 929.263 554.456C931.501 552.987 933.721 551.489 935.921 549.963Z"/>
<path fill="#135498" d="M829.314 638.835C830.238 638.554 830.319 638.75 831.19 639.066C832.599 645.704 832.337 676.889 831.294 684.065C829.185 685.298 826.446 684.936 824.063 684.934L822.456 684.782C820.049 681.97 821.104 645.217 821.522 639.641C823.317 638.537 827.135 638.928 829.314 638.835Z"/>
<path fill="#135498" d="M987.81 639.096L997.542 638.989L997.856 684.962L987.746 684.838C987.893 669.591 987.915 654.343 987.81 639.096Z"/>
<path fill="#135498" d="M990.11 621.374C993.243 619.999 996.903 621.353 998.387 624.437C999.872 627.521 998.648 631.227 995.619 632.82C993.562 633.902 991.079 633.774 989.144 632.487C987.209 631.2 986.13 628.96 986.331 626.644C986.533 624.328 987.982 622.307 990.11 621.374Z"/>
<path fill="#135498" d="M823.712 621.435C826.84 619.875 830.64 621.168 832.169 624.313C833.697 627.457 832.368 631.245 829.209 632.743C826.094 634.221 822.37 632.913 820.863 629.812C819.355 626.71 820.626 622.973 823.712 621.435Z"/>
</svg>